<svg width="128" height="128" viewBox="260 260 500 500" xmlns="http://www.w3.org/2000/svg">
  <path 
    fill="#10b981" 
    opacity="1.000000" 
    stroke="none" 
    d="M483.268066,691.619507 
      C493.431549,693.007996 503.172363,693.880005 513.024780,693.718262 
      C550.901733,693.096375 585.373413,682.075317 616.278503,660.138123 
      C619.537598,657.824707 623.670044,656.277771 625.893127,650.596741 
      C589.127747,649.756287 553.070984,651.873718 515.695618,650.580505 
      C519.413513,645.444763 522.192200,641.397644 525.180542,637.511719 
      C548.940735,606.614380 572.757751,575.760742 596.523132,544.867371 
      C614.702515,521.235474 632.843933,497.574402 650.955322,473.890381 
      C652.089661,472.406982 654.357666,470.964233 653.062317,468.767395 
      C651.899170,466.795013 649.463440,467.350464 647.520142,467.394043 
      C626.364380,467.868591 605.209229,468.172638 584.046204,467.931580 
      C562.721191,467.688690 541.394409,467.470337 520.068787,467.505981 
      C513.417480,467.517120 506.752258,467.886597 500.128845,467.289276 
      C485.741119,465.991669 475.411377,472.842499 467.453033,483.788483 
      C451.402771,505.864319 458.054169,542.878906 491.350586,550.990601 
      C495.853943,552.087769 500.300629,551.251465 504.767120,551.480774 
      C506.538300,551.571716 507.331268,550.170105 508.220490,548.959473 
      C512.951477,542.518555 517.559509,535.981262 522.482178,529.690125 
      C524.777527,526.756836 524.350464,524.490234 522.376404,521.695251 
      C517.765076,515.166077 513.339111,508.504089 508.937866,501.830109 
      C508.157440,500.646667 507.064484,499.431793 507.508453,497.197876 
      C536.505005,497.197876 565.587097,497.197876 595.174072,497.197876 
      C594.189636,500.636414 592.285461,502.953705 590.507568,505.259216 
      C565.683411,537.450439 540.533752,569.396240 516.124451,601.898438 
      C508.906097,611.510010 499.738220,611.234009 490.195129,610.023621 
      C441.911469,603.899902 406.295166,568.955688 401.142761,520.243652 
      C395.678345,468.582031 424.592834,422.408936 477.161469,409.230194 
      C485.116364,407.235931 493.337250,406.892456 501.441406,406.875092 
      C577.766479,406.711426 654.092102,406.815948 730.417358,406.690399 
      C735.895325,406.681396 738.996460,408.765442 741.133301,413.674622 
      C743.947632,420.140259 745.989136,426.799530 747.148438,433.698425 
      C748.330872,440.734741 745.532349,446.744171 741.388916,452.219513 
      C719.069824,481.712585 696.562988,511.065704 674.479614,540.734131 
      C661.047729,558.779419 647.451660,576.688232 633.537048,594.359741 
      C632.625427,595.517456 631.452881,596.537292 631.307617,598.201233 
      C632.322693,600.084412 634.157349,599.584778 635.720276,599.591187 
      C650.385315,599.651672 665.050598,599.651306 679.715820,599.686523 
      C681.943420,599.691833 683.884094,599.607544 685.079163,597.089233 
      C691.565186,583.421997 701.285950,571.940002 710.373413,560.032715 
      C725.024109,540.835876 740.922729,522.599609 754.558899,502.622101 
      C755.797852,500.806946 757.204102,498.588196 759.581116,499.187622 
      C762.468445,499.915649 761.320923,502.815277 761.292175,504.762085 
      C760.709290,544.262817 751.848206,581.768250 734.617188,617.385132 
      C715.888184,656.098328 689.416931,688.343262 654.857056,713.832581 
      C623.101685,737.253540 587.846741,752.807983 548.626953,758.340881 
      C458.148956,771.104736 383.065308,741.514465 322.642609,674.096069 
      C291.390900,639.226074 272.075226,597.983948 264.014130,551.817322 
      C259.237549,524.461487 259.013031,496.917145 263.379028,469.379730 
      C272.765472,410.177399 300.168304,360.626801 344.304016,320.540955 
      C373.107117,294.380798 406.908081,276.766693 444.496918,266.389679 
      C465.664673,260.545959 487.236145,257.606384 509.070374,257.915466 
      C573.964905,258.834015 630.673889,281.236877 679.191956,324.331726 
      C695.475098,338.794800 709.571960,355.167786 721.536987,373.367920 
      C722.514587,374.854858 723.985901,376.142914 723.810303,378.302124 
      C722.249451,380.037872 720.114929,379.359375 718.247375,379.361847 
      C695.249695,379.391968 672.251526,379.257446 649.254639,379.383331 
      C644.500427,379.409332 641.073975,377.409302 637.708679,374.438538 
      C612.474915,352.163330 583.434265,337.257874 550.564697,329.958954 
      C530.235291,325.444672 509.704224,325.051636 489.029053,327.153046 
      C452.853424,330.829895 420.707397,344.319550 392.793213,367.367798 
      C358.178528,395.948547 337.176971,432.718750 329.388672,476.935669 
      C314.695343,560.354919 360.244537,644.930725 437.904022,678.539185 
      C452.322723,684.779053 467.355896,688.958435 483.268066,691.619507 
      z"
  />
</svg>
